<svg id="_圖層_1" data-name="圖層_1" xmlns="http://www.w3.org/2000/svg" version="1.1" viewBox="0 0 780.65 103.81">
 <defs>
 <style>
 .st0 {
 fill: #fff;
 stroke: #231815;
 stroke-miterlimit: 10;
 stroke-width: 5px;
 }
 .st1 {
 fill: #968639;
 }
 .st2 {
 fill: #9d8d4d;
 }
 .st3 {
 fill: #231815;
 }
 .st4 {
 fill: #b2875b;
 }
 .st5 {
 fill: #aead72;
 }
 </style>
 </defs>
 <rect class="st3" x="-22.54" y="952" width="928.27" height="205.93" rx="23.27" ry="23.27"/>
 <polygon class="st0" points="844.15 957.3 40.56 957.3 -16.27 1055.72 40.56 1154.15 844.15 1154.15 900.98 1055.72 844.15 957.3"/>
 <g>
 <path class="st3" d="M10.17,991.1c0,2.6,1.6,4.3,5,4.3h5.3v3.1H-5.33v-3.1H.87c2.7,0,4.2-1.9,4.2-4.3v-27.9h-38.4v27.9c0,3.8,3.2,4.3,4.9,4.3h5v3.1h-25v-3.1h5.6c2.4,0,4.5-1.5,4.5-4.3v-57.5c0-3.9-2.4-5-4.6-5h-5.4v-3.1h24.9v3.1h-5c-2.9,0-4.9,1.4-4.9,5v26.5H5.07v-27c0-1.8-.8-4.5-4.6-4.5h-5.8v-3.1h25.8v3.1h-5.2c-3.6,0-5.1,1.8-5.1,4.5v58Z"/>
 <path class="st3" d="M89.47,925.5v3.1h-3.5c-5,0-6.3.3-12.1,6.9l-16.5,17.6,25.5,37.3c1.2,1.7,3.7,5,8.3,5h3.4v3.1h-24.5v-3.1h4c1.4-.1,3-.6,3-2.3,0-1.1-.7-2.6-1.9-4.4l-21.3-31.9-13.5,14.7v15.2c0,6.3.6,8.7,4.9,8.7h5.1v3.1h-24.9v-3.1h3.2c5.1,0,6.7-2,6.7-8.7v-51.4c0-5.8-3.2-6.7-5.1-6.7h-5.1v-3.1h25.1v3.1h-4.7c-5.2,0-5.2,3.8-5.2,6.7v31.4l29.1-31.2c2.3-2.4,3.3-4.1,3.3-5.1,0-.7-.7-1.8-3.2-1.8h-4.3v-3.1h24.2Z"/>
 <path class="st3" d="M156.67,998.5h-2.9l-5.3-8.7-38.5-58.2v57.4c0,3.9,2,6.4,5.5,6.4h3.8v3.1h-22v-3.1h4.3c1.8,0,5.2-2.1,5.2-6.4v-55.7c0-4.1-3.2-4.7-4.7-4.7h-4.8v-3.1h14.7l41.5,62.8v-55.2c0-3.4-2.4-4.5-5-4.5h-4.4v-3.1h22.1v3.1h-4.7c-2.8,0-4.8,1.6-4.8,4.5v65.4Z"/>
 <path class="st3" d="M177.17,973.5v2.3c0,11.1,7.7,21.5,17.8,21.5,7.7,0,12-5.2,16.6-11.5l2.6,1.8c-7.9,10.1-12.1,12.8-20.2,12.8-15.4,0-21.9-13.6-21.9-24.6,0-15.7,10.4-25.8,20.9-25.8s20.1,9.4,20.1,23.5h-35.9ZM207.87,970.4c-.4-5.9-1.8-10.3-4.5-13.1-2.6-2.8-6-4.2-10.4-4.2-7.6,0-14.1,7.1-15.6,17.3h30.5Z"/>
 <path class="st3" d="M268.67,999.2h-2l-13.3-35.6-10.5,34.9h-1.8l-16.1-40.7c-.6-2.7-3.2-2.7-6.3-2.7v-3.1h17.2v3.1c-3.7,0-6,0-6,2,0,.2.1.4.2.7l12.3,31.9,9.2-30.9v-.2h.1c.1-.6.2-1.1.2-1.5,0-1.5-1.1-2-2.7-2h-4v-3.1h17.2v3.1c-3.9,0-6,0-6,2.1,0,.4.1.9.3,1.4l11.5,31.2,10.5-31.6c.1-.4.2-.7.2-1,0-1.6-1.1-2.1-2.6-2.1h-3.8v-3.1h17v3.1c-4.6,0-6.8,0-7.6,3.1l-13.2,41Z"/>
 <path class="st3" d="M352.27,991.1c0,2.6,1.6,4.3,5,4.3h5.3v3.1h-25.8v-3.1h6.2c2.7,0,4.2-1.9,4.2-4.3v-27.9h-38.4v27.9c0,3.8,3.2,4.3,4.9,4.3h5v3.1h-25v-3.1h5.6c2.4,0,4.5-1.5,4.5-4.3v-57.5c0-3.9-2.4-5-4.6-5h-5.4v-3.1h24.9v3.1h-5c-2.9,0-4.9,1.4-4.9,5v26.5h38.4v-27c0-1.8-.8-4.5-4.6-4.5h-5.8v-3.1h25.8v3.1h-5.2c-3.6,0-5.1,1.8-5.1,4.5v58Z"/>
 <path class="st3" d="M391.96,1000.6c-16.7,0-22.7-14.2-22.7-24.9,0-19.2,13.7-26,22.7-26,11.4,0,22.1,8.5,22.1,26,0,11.1-6.3,24.9-22.1,24.9ZM403.87,958.4c-3.1-3.6-7.1-5.5-11.9-5.5s-9,1.9-12.4,5.6c-3.2,3.6-4.7,9.4-4.7,17.2,0,7.3,2.7,21.7,17.1,21.7,13.1,0,16.4-13.3,16.4-21.7,0-7.9-1.5-13.7-4.5-17.3Z"/>
 <path class="st3" d="M460.96,992.1c0,2.5,2.4,3.3,4.4,3.3h4.5v3.1h-14v-7.7c-5.2,5.5-10.2,8.4-16.3,8.4-6.7,0-11.9-3.9-11.9-13.4v-24.8c0-.9-.3-1.6-.9-2-.6-.5-2.8-.7-6.8-.7v-3.1c3.6,0,7.9-1.4,12.8-4v31.4c0,4.8.6,12.9,8.5,12.9,3.5,0,7.4-1.9,11.8-5.7l2.8-3.2v-25.6c0-1.4-.7-2.2-2-2.5l-5.7-.2v-3.1c3.6,0,7.9-1.4,12.8-4v40.9Z"/>
 <path class="st3" d="M476.76,984.2c2.5,4.8,5.3,8.1,8.7,9.9,3.4,2.1,7,3.1,10.4,3.1,5.6,0,10.8-3.4,10.8-9.2,0-6.9-4.6-9.5-11.5-11.4-7.9-1.9-13-3.9-15.1-6.4-1.9-2-2.9-4.8-2.9-8,0-5,5.1-11.9,14.4-11.9,3.8,0,7.4,1,10.7,2.9l2.1-2.3h1l5.1,13.2h-1.9c-3.8-6.1-8.4-10.7-17-10.7-6.4,0-9.8,4.2-9.8,8.8,0,5.2,3.7,7.2,13.4,9.3,9.5,2.5,16.1,5.2,16.1,15.7,0,6.2-5.3,13.1-15.4,13.1-3.9,0-8.1-1.4-12.5-4.2l-2.5,2.7h-1.6l-4.2-14.1,1.7-.5Z"/>
 <path class="st3" d="M525.06,973.5v2.3c0,11.1,7.7,21.5,17.8,21.5,7.7,0,12-5.2,16.6-11.5l2.6,1.8c-7.9,10.1-12.1,12.8-20.2,12.8-15.4,0-21.9-13.6-21.9-24.6,0-15.7,10.4-25.8,20.9-25.8s20.1,9.4,20.1,23.5h-35.9ZM555.76,970.4c-.4-5.9-1.8-10.3-4.5-13.1-2.6-2.8-6-4.2-10.4-4.2-7.6,0-14.1,7.1-15.6,17.3h30.5Z"/>
 </g>
 <g>
 <path class="st2" d="M1.83,22.68v-2.9h29.58v2.9l-13.76,1.22h-2.34l-13.48-1.22ZM1.83,88.57v-3l13.48-1.22h2.34l13.76,1.22v3H1.83ZM10.91,88.57c.12-5.3.19-10.62.19-15.96v-36.88c0-5.33-.06-10.65-.19-15.96h11.7c-.13,5.24-.2,10.55-.23,15.91-.03,5.37-.05,10.73-.05,16.1v2.53c0,6.43.01,12.4.05,17.92.03,5.52.11,10.97.23,16.33h-11.7ZM16.71,54.78v-3.28h41.84v3.28H16.71ZM43.76,22.68v-2.9h29.48v2.9l-13.48,1.22h-2.34l-13.66-1.22ZM43.76,88.57v-3l13.66-1.22h2.34l13.48,1.22v3h-29.48ZM52.56,88.57c.12-5.3.2-10.72.23-16.24.03-5.52.05-11.53.05-18.02v-2.53c0-5.37-.02-10.72-.05-16.05-.03-5.33-.11-10.65-.23-15.96h11.7c-.06,5.24-.11,10.55-.14,15.91-.03,5.37-.05,10.73-.05,16.1v4.77c0,5.3.01,10.62.05,15.96.03,5.33.08,10.69.14,16.05h-11.7Z"/>
 <path class="st2" d="M82.32,22.68v-2.9h29.58v2.9l-13.48,1.22h-2.34l-13.76-1.22ZM82.32,88.57v-3l13.76-1.22h2.34l12.92,1.22v3h-29.01ZM91.49,88.57c.12-5.3.19-10.62.19-15.96v-36.88c0-5.33-.06-10.65-.19-15.96h11.23c-.13,5.24-.2,10.55-.23,15.91-.03,5.37-.05,10.73-.05,16.1v8.52c0,3.87.01,8.21.05,13.01.03,4.81.11,9.89.23,15.26h-11.23ZM96.83,70.51l-.28-5.71h1.4l1.97-2.53,34.72-42.49h4.68l-42.49,50.73ZM130.9,88.57l-20.03-36.97,7.02-8.24,25.08,45.21h-12.07ZM121.07,88.57v-3l12.82-1.22h1.97l12.35,1.22v3h-27.14ZM121.44,22.68v-2.9h23.77v2.9l-10.2,1.22-2.34.09-11.23-1.31Z"/>
 <path class="st4" d="M152.42,88.57v-3l9.83-1.22h2.34l12.54,1.22v3h-24.71ZM205.87,89.04l-41.93-61.21-.28-.28-2.71-4.21-8.42-.66v-2.9h19l38.19,56.06-1.68.66-.28-27.89v-28.83h3.74v69.26h-5.62ZM161.41,88.57V22.12h3.46l.75,39.78v26.67h-4.21ZM195.95,22.68v-2.9h24.71v2.9l-9.83,1.22h-2.25l-12.64-1.22Z"/>
 <path class="st4" d="M250.7,90.07c-4.87,0-9.19-1-12.96-3-3.78-2-6.74-4.94-8.89-8.84-2.15-3.9-3.23-8.69-3.23-14.37s1.14-10.09,3.42-13.99c2.28-3.9,5.27-6.89,8.98-8.98,3.71-2.09,7.69-3.14,11.93-3.14s8.08.89,11.14,2.67c3.06,1.78,5.37,4.18,6.93,7.21,1.56,3.03,2.34,6.44,2.34,10.25,0,2.25-.19,4.15-.56,5.71h-39.5v-3.09h25.36c1.81,0,3.04-.5,3.7-1.5.66-1,.98-2.65.98-4.96,0-4.06-.95-7.27-2.85-9.64-1.9-2.37-4.54-3.56-7.91-3.56-2.37,0-4.52.81-6.46,2.43-1.93,1.62-3.48,4.06-4.63,7.3-1.16,3.25-1.73,7.27-1.73,12.07,0,5.12.73,9.3,2.2,12.54,1.47,3.25,3.51,5.63,6.13,7.16,2.62,1.53,5.58,2.29,8.89,2.29s6.15-.61,8.52-1.82c2.37-1.22,4.43-2.95,6.18-5.19l1.59,1.31c-2,3.5-4.65,6.22-7.96,8.19-3.31,1.97-7.18,2.95-11.61,2.95Z"/>
 <path class="st4" d="M273.44,41.96v-2.71h24.52v2.71l-11.7,1.03h-3.37l-9.45-1.03ZM295.34,88.95l-17.5-49.7h10.95l13.01,41.09h-1.59l.47-1.31,13.57-39.78h5.15l14.32,41.09h-1.68l.37-1.12,12.07-39.97h4.12l-16.85,49.7h-4.59l-14.51-42.49h2.53l-.66,1.68-14.6,40.81h-4.59ZM305.92,41.96v-2.71h22.28v2.71l-9.64,1.03h-2.81l-9.83-1.03ZM335.12,41.96v-2.71h18.91v2.71l-7.67,1.03h-1.4l-9.83-1.03Z"/>
 <path class="st5" d="M355.43,22.68v-2.9h29.58v2.9l-13.76,1.22h-2.34l-13.48-1.22ZM355.43,88.57v-3l13.48-1.22h2.34l13.76,1.22v3h-29.58ZM364.51,88.57c.12-5.3.19-10.62.19-15.96v-36.88c0-5.33-.06-10.65-.19-15.96h11.7c-.13,5.24-.2,10.55-.23,15.91-.03,5.37-.05,10.73-.05,16.1v2.53c0,6.43.01,12.4.05,17.92.03,5.52.11,10.97.23,16.33h-11.7ZM370.31,54.78v-3.28h41.84v3.28h-41.84ZM397.36,22.68v-2.9h29.48v2.9l-13.48,1.22h-2.34l-13.66-1.22ZM397.36,88.57v-3l13.66-1.22h2.34l13.48,1.22v3h-29.48ZM406.16,88.57c.12-5.3.2-10.72.23-16.24.03-5.52.05-11.53.05-18.02v-2.53c0-5.37-.02-10.72-.05-16.05-.03-5.33-.11-10.65-.23-15.96h11.7c-.06,5.24-.11,10.55-.14,15.91-.03,5.37-.05,10.73-.05,16.1v4.77c0,5.3.01,10.62.05,15.96.03,5.33.08,10.69.14,16.05h-11.7Z"/>
 <path class="st5" d="M457.07,90.07c-4.56,0-8.69-1.03-12.4-3.09-3.78-2-6.74-4.94-8.89-8.84-2.15-3.9-3.23-8.69-3.23-14.37s1.14-10.09,3.42-13.99c2.28-3.9,5.27-6.89,8.98-8.98,3.71-2.09,7.69-3.14,11.93-3.14s8.42,1,12.17,3c3.74,2,6.75,4.93,9.03,8.8,2.28,3.87,3.42,8.61,3.42,14.23s-1.09,10.37-3.28,14.27c-2.19,3.9-5.13,6.88-8.84,8.94-3.71,2.06-7.88,3.09-12.5,3.09ZM457.07,86.98c4.18,0,7.44-1.95,9.78-5.85,2.34-3.9,3.51-9.62,3.51-17.17s-1.17-13.37-3.51-17.27c-2.34-3.9-5.6-5.85-9.78-5.85s-7.35,1.95-9.69,5.85c-2.34,3.9-3.51,9.66-3.51,17.27s1.17,13.28,3.51,17.17c2.34,3.9,5.57,5.85,9.69,5.85Z"/>
 <path class="st5" d="M509.86,90.07c-4.56,0-8.1-1.42-10.62-4.26-2.53-2.84-3.76-7.75-3.7-14.74l.28-28.55,2.43,1.87-9.73-1.5v-2.53l17.03-1.97,1.03,1.03-.47,13.1v19.09c0,4.49.76,7.63,2.29,9.41,1.53,1.78,3.67,2.67,6.41,2.67s5.38-.83,7.91-2.48c2.53-1.65,4.79-3.85,6.79-6.6l2.71,4.31h-3.65c-2.37,3.25-5.1,5.91-8.19,8-3.09,2.09-6.6,3.14-10.53,3.14ZM527.93,89.6l-.37-11.42v-.19l.19-34.07-7.02-1.03v-2.25l16.75-2.25.94,1.03-.37,13.1v32.76l6.74.66v2.71l-16.85.94Z"/>
 <path class="st5" d="M569.86,90.07c-3.25,0-6.19-.36-8.85-1.08-2.65-.72-5.29-1.73-7.91-3.04l.28-11.7h4.77l2.62,12.45-4.02-.37v-3.37c1.87,1.25,3.76,2.2,5.66,2.85,1.9.66,4.16.98,6.79.98,3.93,0,6.91-.76,8.94-2.29,2.03-1.53,3.04-3.6,3.04-6.22,0-2.18-.67-3.99-2.01-5.43-1.34-1.43-3.92-2.74-7.72-3.93l-5.05-1.78c-3.93-1.31-7.04-3.1-9.31-5.38-2.28-2.28-3.42-5.26-3.42-8.94,0-4.31,1.64-7.89,4.91-10.76,3.28-2.87,7.97-4.31,14.09-4.31,2.93,0,5.57.34,7.91,1.03,2.34.69,4.76,1.75,7.25,3.18l-.47,10.67h-4.31l-2.99-11.89,3.46,1.03v2.9c-1.87-1.31-3.62-2.25-5.24-2.81-1.62-.56-3.46-.84-5.52-.84-3.31,0-5.85.73-7.63,2.2-1.78,1.47-2.67,3.42-2.67,5.85,0,2.06.7,3.79,2.11,5.19s3.85,2.67,7.35,3.79l5.05,1.69c4.8,1.56,8.25,3.54,10.34,5.94,2.09,2.4,3.13,5.35,3.13,8.84,0,2.99-.79,5.66-2.39,8-1.59,2.34-3.92,4.18-6.97,5.52-3.06,1.34-6.8,2.01-11.23,2.01Z"/>
 <path class="st5" d="M623.3,90.07c-4.87,0-9.19-1-12.96-3-3.78-2-6.74-4.94-8.89-8.84-2.15-3.9-3.23-8.69-3.23-14.37s1.14-10.09,3.42-13.99c2.28-3.9,5.27-6.89,8.99-8.98,3.71-2.09,7.69-3.14,11.93-3.14s8.08.89,11.14,2.67c3.06,1.78,5.37,4.18,6.93,7.21,1.56,3.03,2.34,6.44,2.34,10.25,0,2.25-.19,4.15-.56,5.71h-39.5v-3.09h25.36c1.81,0,3.04-.5,3.7-1.5.66-1,.98-2.65.98-4.96,0-4.06-.95-7.27-2.85-9.64-1.9-2.37-4.54-3.56-7.91-3.56-2.37,0-4.53.81-6.46,2.43-1.94,1.62-3.48,4.06-4.63,7.3-1.16,3.25-1.73,7.27-1.73,12.07,0,5.12.73,9.3,2.2,12.54,1.46,3.25,3.51,5.63,6.13,7.16,2.62,1.53,5.58,2.29,8.89,2.29s6.15-.61,8.52-1.82c2.37-1.22,4.43-2.95,6.18-5.19l1.59,1.31c-2,3.5-4.65,6.22-7.96,8.19-3.31,1.97-7.18,2.95-11.61,2.95Z"/>
 </g>
</svg>